{"title":"Thurgood 2011 BRRip XviD - ZOMBiES","uid":6935873,"size":831498343,"categoryP":"video","categoryS":"movies","magnet":"?xt=urn:btih:eedfb93b2787e52e973d9532c5871f5d6dfeea55&amp;dn=Thurgood+2011+BRRip+XviD+-+ZOMBiES&amp;tr=udp%3A%2F%2Ftracker.openbittorrent.com%3A80&amp;tr=udp%3A%2F%2Fopen.demonii.com%3A1337&amp;tr=udp%3A%2F%2Ftracker.coppersurfer.tk%3A6969&amp;tr=udp%3A%2F%2Fexodus.desync.com%3A6969","seeders":0,"leechers":1,"uploader":"HeroMaster","files":-1,"time":1325823005,"description":"***********************************************************************\n\n                    Thurgood 2011 BRRip XviD - ZOMBiES\n                                                            \n************************************************************************\n\n &lt;a href=&quot;\nhttp://imdb.com/title/tt1844811/&quot; rel=&quot;nofollow&quot; target=&quot;_NEW&quot;&gt;\nhttp://imdb.com/title/tt1844811/&lt;/a&gt;\n\n\nRelease Name : Thurgood 2011 BRRip XviD - ZOMBiES\nRating : 8.5/10\nGenre : Drama\nStars : Laurence Fishburne\nDirector : Michael Stevens\nWriters : George Stevens Jr.\nRelease Date : 24 Feb 2011\n\n\nPlot:\n\n\nLaurence Fishburne's Tony-nominated portrayal of Thurgood Marshall, the civil-rights lawyer who tried Brown v. Board of Education in 1954 and became the \nfirst black justice on the U.S. Supreme Court. Filmed at the Kennedy Center's Eisenhower Theater in Washington, D.C.\n\n\nDetails:\n\n\nGeneral Information\n\nRating : 8.5/10\nGenre : Drama\nStars : Laurence Fishburne\nDirector : Michael Stevens\nWriters : George Stevens Jr.\nRelease Date : 24 Feb 2011\nFormat : AVI\nFormat/Info : Audio Video Interleave\nFile size : 793 MiB\nDuration : 1h 45mn\nOverall bit rate : 1 050 Kbps\nWriting application : MEncoder SVN-r33823-4.1.2\nWriting library : MPlayer\n\n\nVideo Information\n\nID : 0\nFormat : xvid\nCodec ID : xvid\nDuration : 1h 45mn\nBit rate : 913 Kbps\nWidth : 626 pixels\nHeight : 352 pixels\nDisplay aspect ratio : 16:9\nFrame rate : 23.976 fps\nBits/(Pixel*Frame) : 0.173\nStream size : 689 MiB (87%)\n\n\nAudio Information\n\nID : 1\nFormat : MPEG Audio\nFormat version : Version 1\nFormat profile : Layer 3\nMode : Joint stereo\nMode extension : MS Stereo\nCodec ID : 55\nCodec ID/Hint : MP3\nDuration : 1h 45mn\nBit rate mode : Constant\nBit rate : 32.0 Kbps\nChannel(s) : 2 channels\nSampling rate : 48.0 KHz\nCompression mode : Lossy\nStream size : 94.0 MiB (12%)\nAlignment : Aligned on interleaves\nInterleave, duration : 24 ms (0.58 video frame)\nInterleave, preload duration : 129 ms\nWriting library : LAME3.98.4\n\n\nPoster:\n\n &lt;a href=&quot;\nhttp://i.imgur.com/DQ8xc.jpg&quot; rel=&quot;nofollow&quot; target=&quot;_NEW&quot;&gt;\nhttp://i.imgur.com/DQ8xc.jpg&lt;/a&gt;\n\n\nScreens:\n\n &lt;a href=&quot;\nhttp://i.imgur.com/AXcPv.jpg&quot; rel=&quot;nofollow&quot; target=&quot;_NEW&quot;&gt;\nhttp://i.imgur.com/AXcPv.jpg&lt;/a&gt;\n\n &lt;a href=&quot;\nhttp://i.imgur.com/7a9Mw.jpg&quot; rel=&quot;nofollow&quot; target=&quot;_NEW&quot;&gt;\nhttp://i.imgur.com/7a9Mw.jpg&lt;/a&gt;\n\n\nENJOY!","torrent":{"xt":"urn:btih:eedfb93b2787e52e973d9532c5871f5d6dfeea55","amp;dn":"Thurgood+2011+BRRip+XviD+-+ZOMBiES","amp;tr":["udp%3A%2F%2Ftracker.openbittorrent.com%3A80","udp%3A%2F%2Fopen.demonii.com%3A1337","udp%3A%2F%2Ftracker.coppersurfer.tk%3A6969","udp%3A%2F%2Fexodus.desync.com%3A6969"],"infoHash":"eedfb93b2787e52e973d9532c5871f5d6dfeea55","infoHashBuffer":{"type":"Buffer","data":[238,223,185,59,39,135,229,46,151,61,149,50,197,135,31,93,109,254,234,85]},"announce":[],"urlList":[]}}